# xmcd
#
# Track frame offsets: 
#        150
#        22604
#        45577
#        69559
#        91335
#        114675
#        129339
#        157914
#        173747
#        194171
#        216345
#
# Disc length: 3207 seconds
#
# Revision: 2
# Processed by: cddbd v1.5.2PL0 Copyright (c) Steve Scherf et al.
# Submitted via: ExactAudioCopy v0.99pb5
#
DISCID=900c850b
DTITLE=Blues Company - From Daybreak To Heartbreak
DYEAR=1900
DGENRE=
TTITLE0=The River
TTITLE1=Listen What I Say
TTITLE2=Over The City
TTITLE3=Wait A Minute
TTITLE4=Over
TTITLE5=Get In The Groove
TTITLE6=Blues Is A Feeling
TTITLE7=21st Century Blues
TTITLE8=Keepin' The Blues Alive
TTITLE9=Commercials
TTITLE10=Blues For Mick
EXTD=
EXTT0=
EXTT1=
EXTT2=
EXTT3=
EXTT4=
EXTT5=
EXTT6=
EXTT7=
EXTT8=
EXTT9=
EXTT10=
PLAYORDER=
